<svg xmlns="http://www.w3.org/2000/svg" viewBox="0 0 136.75 136.75"><defs><style>.cls-1{fill:#f49211;}.cls-2{fill:#fff;}.cls-3{fill:none;stroke:#f49211;stroke-miterlimit:10;stroke-width:2.36px;}</style></defs><title>Resurs 5</title><g id="Lager_2" data-name="Lager 2"><g id="Lager_1-2" data-name="Lager 1"><circle class="cls-1" cx="68.38" cy="68.38" r="68.38"/><path class="cls-2" d="M95.85,37.88l-55.2,1.74.26-5.35a3.18,3.18,0,0,1,3-3.29l49-1.56a3.12,3.12,0,0,1,3.17,3.1Z"/><path class="cls-2" d="M73.56,33.72,64,35.06l-.5-6.73a1.8,1.8,0,0,1,1.49-2l6.12-.86a1.75,1.75,0,0,1,2,1.54Z"/><path class="cls-2" d="M91.48,104.05H46.74L41.68,48.4a3.63,3.63,0,0,1,3.56-4l45-1.36a3.63,3.63,0,0,1,3.56,4Z"/><rect class="cls-3" x="56.06" y="60.07" width="1.32" height="33.81"/><rect class="cls-3" x="66.61" y="55.25" width="1.32" height="33.81"/><rect class="cls-3" x="78.47" y="60.07" width="1.32" height="33.81"/></g></g></svg>